<?xml version="1.0" encoding="utf-8"?>
<!-- Generator: Adobe Illustrator 23.0.1, SVG Export Plug-In . SVG Version: 6.00 Build 0)  -->
<svg version="1.1" id="Layer_1" xmlns="http://www.w3.org/2000/svg" xmlns:xlink="http://www.w3.org/1999/xlink" x="0px" y="0px"
	 viewBox="0 0 94.3 86" style="enable-background:new 0 0 94.3 86;" xml:space="preserve">
<style type="text/css">
	.st0{fill:#FFFFFF;}
	.st1{fill:#354D37;}
	.st2{fill:#064B26;}
	.st3{fill:#6C787F;}
	.st4{fill:#231F20;}
	.st5{fill:#E82927;}
	.st6{fill:#FCD600;}
	.st7{fill:none;}
	.st8{clip-path:url(#SVGID_2_);}
	.st9{clip-path:url(#SVGID_4_);}
	.st10{clip-path:url(#SVGID_6_);}
	.st11{clip-path:url(#SVGID_8_);}
</style>
<g>
	<g>
		<g>
			<path class="st0" d="M92.6,54.7c0,2.4-3.3,4.4-7.3,4.4H9.7c-4,0-7.3-2-7.3-4.4V31.2c0-2.4,3.3-4.4,7.3-4.4h75.6
				c4,0,7.3,2,7.3,4.4V54.7z"/>
		</g>
		<g>
			<path class="st1" d="M85.3,59.5H9.7c-4.2,0-7.6-2.1-7.6-4.7V31.2c0-2.6,3.4-4.7,7.6-4.7h75.6c4.2,0,7.6,2.1,7.6,4.7v23.5
				C93,57.3,89.6,59.5,85.3,59.5z M9.7,27.2c-3.8,0-6.9,1.8-6.9,4v23.5c0,2.2,3.1,4,6.9,4h75.6c3.8,0,6.9-1.8,6.9-4V31.2
				c0-2.2-3.1-4-6.9-4H9.7z"/>
		</g>
	</g>
	<g>
		<g>
			<path class="st2" d="M54.8,39.1c0,0.3,0,0.6-0.1,0.7c0,0.1-0.1,0.1-0.1,0.1c-0.2,0-0.4,0-0.8,0c-0.3,0-0.6,0-0.8,0
				c-0.2,0-0.4,0-0.7,0c-0.3,0-0.6,0-0.7,0c-0.1,0-0.1,0-0.1-0.1c0-0.3,0-0.6,0-1.1c0-0.5,0-0.9,0-1.1c0-0.3,0-0.7,0-1.2
				c0-0.5,0-0.9,0-1.2c0,0,0-0.1,0.1-0.1c0,0,0.1,0,0.2,0c0.1,0,0.2,0,0.2,0c0,0,0.1,0,0.2,0c0.1,0,0.2,0,0.2,0c0.1,0,0.1,0,0.1,0.1
				c0,0.2,0,0.6,0,1.1c0,0.5,0,0.9,0,1.1c0,0.1,0,0.3,0,0.5c0,0.2,0,0.4,0,0.5c0,0.5,0,0.8,0.1,0.8c0.9,0,1.5,0,2-0.1
				c0,0,0.1,0,0.2,0C54.7,39,54.7,39,54.8,39.1C54.8,39,54.8,39,54.8,39.1z"/>
			<path class="st2" d="M59.3,35.1c0,0.3,0,0.7,0,1.2c0,0.5,0,0.9,0,1.2c0,0.1,0,0.2,0,0.4c0,0.2,0,0.3,0,0.4c0,0.5,0,0.8-0.1,1
				c-0.1,0.3-0.4,0.5-0.8,0.6c-0.2,0.1-0.6,0.1-1.1,0.1c-0.8,0-1.4-0.1-1.6-0.4c-0.2-0.2-0.3-0.6-0.3-1.2c0-0.1,0-0.2,0-0.4
				c0-0.2,0-0.3,0-0.4c0-0.3,0-0.8,0-1.5c0-0.2,0-0.5,0-0.8c0,0,0,0,0-0.1c0,0,0-0.1,0.1-0.1c0.1,0,0.2,0,0.4,0c0.2,0,0.3,0,0.4,0
				c0.1,0,0.1,0,0.1,0.1c0,0.3,0,0.9,0,1.6c0,0.7,0,1.2,0,1.6c0,0.4,0.1,0.7,0.3,0.8c0.2,0.1,0.4,0.2,0.9,0.2c0.4,0,0.7-0.1,0.8-0.2
				c0.2-0.1,0.3-0.4,0.3-0.7c0-0.4,0-0.9,0-1.6c0-0.7,0-1.3,0-1.6c0,0,0-0.1,0.1-0.1c0,0,0.1,0,0.2,0c0.1,0,0.2,0,0.2,0
				c0,0,0.1,0,0.2,0C59.1,35,59.2,35,59.3,35.1C59.3,35,59.3,35,59.3,35.1z"/>
			<path class="st2" d="M65.9,36.7c0,0-0.2,0.5-0.7,1.5c-0.2,0.3-0.4,0.8-0.7,1.5c0,0.1-0.1,0.1-0.1,0.1h-0.6c0,0-0.1,0-0.1-0.1
				c-0.2-0.4-0.4-1-0.8-1.9c-0.2,0.4-0.4,1.1-0.8,1.9c0,0.1-0.1,0.1-0.1,0.1h-0.6c0,0-0.1,0-0.1-0.1c-0.2-0.3-0.4-0.8-0.7-1.5
				c-0.5-0.9-0.7-1.4-0.7-1.5c0-0.2,0-0.5,0-0.9c0-0.4,0-0.7,0-0.9c0,0,0-0.1,0.1-0.1c0,0,0.1,0,0.2,0c0.1,0,0.2,0,0.2,0
				c0,0,0.1,0,0.2,0c0.1,0,0.1,0,0.2,0c0,0,0.1,0,0.1,0.1c0,0.2,0,0.5,0,0.8c0,0.4,0,0.7,0,0.8c0,0.1,0.2,0.6,0.7,1.6
				c0.2,0.3,0.2,0.5,0.3,0.5c0,0,0,0,0,0c0-0.1,0.1-0.2,0.2-0.4c0.2-0.4,0.3-1,0.5-1.5c0-0.1,0-0.2,0-0.5c0-0.1,0-0.3,0-0.6
				c0-0.3,0-0.5,0-0.6c0,0,0-0.1,0.1-0.1c0,0,0.1,0,0.2,0c0.1,0,0.2,0,0.2,0c0,0,0.1,0,0.2,0c0.1,0,0.1,0,0.2,0c0.1,0,0.1,0,0.1,0.1
				c0,0.1,0,0.4,0,0.7c0,0.3,0,0.5,0,0.7c0,0.2,0,0.4,0,0.4c0,0.1,0.2,0.6,0.5,1.5c0,0.1,0.1,0.2,0.2,0.4c0,0,0,0,0,0
				c0,0,0.1-0.2,0.3-0.5c0.5-0.9,0.7-1.4,0.7-1.6c0-0.2,0-0.5,0-0.8c0-0.4,0-0.7,0-0.8c0,0,0-0.1,0-0.1c0,0,0.1,0,0.2,0
				c0.1,0,0.2,0,0.2,0c0,0,0.1,0,0.2,0c0.1,0,0.2,0,0.2,0c0,0,0.1,0,0.1,0c0,0,0,0,0,0.1c0,0.2,0,0.5,0,0.8
				C65.9,36.3,65.9,36.6,65.9,36.7z"/>
			<path class="st2" d="M69.8,39.1c0,0,0,0.1,0,0.2c0,0.1,0,0.1,0,0.2c0,0.1,0,0.2-0.1,0.4c0,0,0,0.1-0.1,0.1c0,0-0.1,0-0.1,0
				c-0.3,0-0.7-0.1-1.3-0.1c-0.2,0-0.4,0-0.8,0c-0.3,0-0.6,0-0.8,0c-0.1,0-0.1,0-0.1-0.1c0-0.3,0-0.6,0-1.2c0-0.5,0-0.9,0-1.2
				c0-0.3,0-0.8,0-1.5c0-0.2,0-0.5,0-0.8l0,0c0-0.1,0-0.1,0.1-0.1c0.2,0,0.4,0,0.7,0c0.3,0,0.6,0,0.7,0c0.2,0,0.4,0,0.7,0
				c0.3,0,0.6,0,0.7,0c0.1,0,0.2,0,0.2,0.1c0,0.3,0.1,0.5,0.1,0.6c0,0.1,0,0.1-0.1,0.1c-0.2,0-0.5,0-0.9,0c-0.4,0-0.7,0-0.9,0
				c-0.2,0-0.3,0-0.4,0.1c-0.1,0.1-0.1,0.2-0.1,0.4v0.5c0,0.1,0,0.2,0,0.2c0,0.1,0.1,0.1,0.2,0.1c0,0,0.1,0,0.1,0c0.1,0,0.1,0,0.1,0
				c0.5,0,0.9,0,1.2,0c0.1,0,0.3,0,0.5,0c0,0,0.1,0,0.1,0.1c0,0.1,0,0.2,0,0.3c0,0.2,0,0.3,0,0.3c0,0,0,0.1-0.1,0.1c0,0-0.1,0-0.3,0
				c-0.1,0-0.4,0-0.9,0c-0.4,0-0.6,0-0.7,0c-0.1,0-0.1,0.1-0.2,0.1c0,0,0,0.1,0,0.3v0.5c0,0.2,0,0.4,0.1,0.4c0.1,0,0.2,0.1,0.4,0.1
				l0.4,0c0.2,0,0.6,0,1.4-0.1L69.8,39.1C69.8,39,69.8,39.1,69.8,39.1z"/>
			<path class="st2" d="M74.2,39.8C74.2,39.8,74.2,39.8,74.2,39.8c-0.1,0-0.2,0-0.3,0c-0.1,0-0.2,0-0.2,0c0,0-0.1,0-0.2,0
				c-0.1,0-0.2,0-0.2,0c-0.1,0-0.1,0-0.1-0.1c-0.1-0.2-0.3-0.6-0.6-1.4c0-0.1-0.1-0.1-0.3-0.2c0,0-0.1,0-0.3,0c-0.3,0-0.5,0-0.6,0
				c0,0-0.1,0.1-0.1,0.2c0,0.2,0,0.4,0,0.7c0,0.3,0,0.6,0,0.7c0,0,0,0.1-0.1,0.1c0,0-0.1,0-0.2,0c-0.1,0-0.2,0-0.2,0
				c0,0-0.1,0-0.2,0c-0.1,0-0.1,0-0.2,0c-0.1,0-0.1,0-0.1-0.1c0-0.3,0-0.6,0-1.2c0-0.5,0-0.9,0-1.1c0-0.7,0-1.5-0.1-2.3l0-0.1
				c0,0,0-0.1,0.1-0.1c0.2,0,0.5,0,0.9,0c0.4,0,0.7,0,0.9,0c0.5,0,0.9,0.1,1.3,0.4c0.3,0.3,0.5,0.7,0.5,1.1c0,0.3,0,0.6-0.1,0.8
				c-0.1,0.2-0.3,0.4-0.6,0.6c0,0-0.1,0.1-0.1,0.1c0,0,0.1,0.3,0.4,0.9C74.1,39.4,74.2,39.8,74.2,39.8z M73.3,36.7
				c0-0.4-0.1-0.7-0.4-0.8c-0.2-0.1-0.5-0.2-1-0.2c-0.4,0-0.6,0-0.6,0.1c0,0.1,0,0.5,0,1v0.7c0,0,0,0,0,0c0,0,0.1,0,0.2,0
				c0.2,0,0.5,0,0.7,0C72.9,37.5,73.3,37.2,73.3,36.7z"/>
			<path class="st2" d="M79.4,37.4c0,0.7-0.2,1.3-0.7,1.8c-0.5,0.5-1,0.8-1.7,0.8c-0.7,0-1.3-0.3-1.7-0.8c-0.4-0.5-0.7-1.1-0.7-1.8
				c0-0.7,0.2-1.3,0.7-1.8c0.5-0.5,1-0.8,1.7-0.8c0.7,0,1.3,0.3,1.7,0.8C79.2,36.1,79.4,36.7,79.4,37.4z M78.5,37.4
				c0-0.5-0.1-0.8-0.4-1.2c-0.3-0.4-0.7-0.5-1.1-0.5c-0.5,0-0.8,0.2-1.1,0.5c-0.3,0.3-0.4,0.7-0.4,1.2c0,0.4,0.1,0.8,0.4,1.2
				c0.3,0.4,0.7,0.5,1.1,0.5c0.5,0,0.8-0.2,1.1-0.5C78.4,38.2,78.5,37.8,78.5,37.4z"/>
			<path class="st2" d="M52.5,46.5c0,0,0,0.1-0.1,0.1c0,0-0.1,0-0.2,0c-0.1,0-0.2,0-0.2,0c0,0-0.1,0-0.2,0c-0.1,0-0.2,0-0.2,0
				c-0.1,0-0.1,0-0.1-0.1c0-0.3,0-0.7,0-1.2c0-0.5,0-0.9,0-1.2c0-0.3,0-0.6,0-1.1c0-0.5,0-0.9,0-1.1c0-0.1,0-0.1,0.1-0.1
				c0,0,0.1,0,0.2,0c0.1,0,0.2,0,0.2,0c0,0,0.1,0,0.2,0c0.1,0,0.1,0,0.2,0c0.1,0,0.1,0,0.1,0.1c0,0.3,0,0.6,0,1.2c0,0.5,0,0.9,0,1.2
				c0,0.3,0,0.7,0,1.2C52.4,45.9,52.5,46.3,52.5,46.5z"/>
			<path class="st2" d="M57.7,41.9c0,0.3,0,0.7,0,1.2c0,0.5,0,0.9,0,1.2c0,0.3,0,0.6,0,1.1c0,0.5,0,0.9,0,1.1c0,0.1,0,0.1-0.1,0.1
				c0,0-0.1,0-0.2,0c-0.1,0-0.1,0-0.2,0c0,0-0.1,0-0.2,0c-0.1,0-0.1,0-0.2,0c0,0-0.1,0-0.2-0.1c-0.5-0.7-1.3-1.7-2.3-3
				c-0.2-0.2-0.3-0.3-0.3-0.3c0,0,0,0,0,0.1c0,0.4,0,0.9,0,1.6c0,0.7,0,1.2,0,1.6c0,0.1,0,0.1-0.1,0.1c0,0-0.1,0-0.2,0
				c-0.1,0-0.1,0-0.2,0c0,0-0.1,0-0.2,0c-0.1,0-0.1,0-0.2,0c-0.1,0-0.1,0-0.1-0.1c0-0.3,0-0.6,0-1.1c0-0.5,0-0.9,0-1.1
				c0-0.3,0-0.8,0-1.5c0-0.2,0-0.5,0-0.8l0,0c0,0,0-0.1,0.1-0.1c0.2,0,0.3,0,0.4,0c0,0,0.1,0,0.2,0c0.1,0,0.1,0,0.2,0
				c0,0,0.1,0,0.1,0.1c0.5,0.7,1.4,1.8,2.5,3.2c0,0.1,0.1,0.1,0.1,0.2c0-0.1,0-0.3,0-0.7c0-0.3,0-0.7,0-1.3c0-0.6,0-1,0-1.3
				c0-0.1,0-0.1,0.1-0.1c0,0,0.1,0,0.2,0c0.1,0,0.2,0,0.2,0c0,0,0.1,0,0.2,0C57.5,41.8,57.5,41.8,57.7,41.9
				C57.6,41.8,57.7,41.8,57.7,41.9z"/>
			<path class="st2" d="M62.8,44.2c0,0.6-0.2,1.2-0.6,1.7c-0.4,0.5-0.9,0.8-1.6,0.8c-0.1,0-0.3,0-0.6,0c-0.2,0-0.4,0-0.6,0
				c-0.1,0-0.3,0-0.5,0c-0.2,0-0.4,0-0.5,0c-0.1,0-0.1,0-0.1-0.1c0-0.2,0-0.6,0-1.1c0-0.5,0-0.9,0-1.1c0-0.3,0-0.7,0-1.2
				c0-0.5,0-0.9,0-1.2c0,0,0-0.1,0.1-0.1c0.1,0,0.2,0,0.4,0c0.2,0,0.3,0,0.4,0c0.1,0,0.2,0,0.4,0c0.2,0,0.3,0,0.4,0
				c0.8,0,1.4,0.2,1.8,0.5c0.3,0.2,0.5,0.5,0.7,0.9C62.7,43.4,62.8,43.8,62.8,44.2z M61.9,44.2c0-0.5-0.1-0.9-0.4-1.2
				c-0.3-0.3-0.7-0.5-1.2-0.5c-0.4,0-0.6,0-0.5,0c-0.3,0-0.4,0.1-0.4,0.1c0,0.2,0,0.4,0,0.8c0,0.4,0,0.6,0,0.8c0,0.2,0,0.4,0,0.8
				c0,0.3,0,0.6,0,0.8c0,0.1,0.1,0.1,0.4,0.2c0,0,0.1,0,0.5,0c0.3,0,0.5,0,0.6-0.1c0.2-0.1,0.4-0.2,0.5-0.4
				C61.8,45.1,61.9,44.7,61.9,44.2z"/>
			<path class="st2" d="M67.4,41.9c0,0.3,0,0.7,0,1.2c0,0.5,0,0.9,0,1.2c0,0.1,0,0.2,0,0.4c0,0.2,0,0.3,0,0.4c0,0.5,0,0.8-0.1,1
				c-0.1,0.3-0.4,0.5-0.8,0.6c-0.2,0.1-0.6,0.1-1.1,0.1c-0.8,0-1.4-0.1-1.6-0.4c-0.2-0.2-0.3-0.6-0.3-1.2c0-0.1,0-0.2,0-0.4
				c0-0.2,0-0.3,0-0.4c0-0.3,0-0.8,0-1.5c0-0.2,0-0.5,0-0.8c0,0,0,0,0-0.1c0,0,0-0.1,0.1-0.1c0.1,0,0.2,0,0.4,0c0.2,0,0.3,0,0.4,0
				c0.1,0,0.1,0,0.1,0.1c0,0.4,0,0.9,0,1.6c0,0.7,0,1.2,0,1.6c0,0.4,0.1,0.7,0.3,0.8c0.2,0.1,0.4,0.2,0.9,0.2c0.4,0,0.6-0.1,0.8-0.2
				c0.2-0.1,0.3-0.4,0.3-0.7c0-0.4,0-0.9,0-1.6c0-0.7,0-1.3,0-1.6c0,0,0-0.1,0.1-0.1c0,0,0.1,0,0.2,0c0.1,0,0.2,0,0.2,0
				c0,0,0.1,0,0.2,0C67.2,41.8,67.3,41.8,67.4,41.9C67.4,41.8,67.4,41.8,67.4,41.9z"/>
			<path class="st2" d="M71,42.1c0,0.1-0.1,0.2-0.2,0.3c0,0.1-0.1,0.2-0.1,0.3c0,0,0,0-0.1,0c0,0-0.1,0-0.3-0.1
				c-0.2-0.1-0.4-0.1-0.6-0.1c-0.4,0-0.7,0.2-0.7,0.6c0,0.2,0.2,0.4,0.5,0.5c0.5,0.3,0.8,0.4,0.9,0.4c0.3,0.2,0.5,0.6,0.5,1
				c0,0.5-0.2,0.9-0.6,1.2c-0.4,0.3-0.8,0.4-1.4,0.4c-0.3,0-0.4,0-0.4-0.1c0-0.1,0-0.2-0.1-0.4c0-0.1,0-0.2-0.1-0.3c0,0,0,0,0-0.1
				c0,0,0-0.1,0.1-0.1c0.1,0,0.1,0,0.3,0c0.1,0,0.2,0,0.3,0c0.7,0,1.1-0.2,1.1-0.7c0-0.2-0.1-0.4-0.4-0.6c-0.5-0.3-0.8-0.5-0.8-0.5
				c-0.3-0.2-0.4-0.5-0.4-0.9c0-0.4,0.1-0.8,0.4-1c0.3-0.2,0.6-0.4,1.1-0.4c0.2,0,0.4,0,0.7,0.1C70.6,41.9,70.8,42,71,42.1
				C70.9,42.1,71,42.1,71,42.1z"/>
			<path class="st2" d="M74.8,42.4C74.8,42.5,74.8,42.5,74.8,42.4c-0.1,0.1-0.5,0.1-1.3,0c0,0.7,0,1.3,0,1.7c0,0.3,0,0.7,0,1.2
				c0,0.5,0,0.9,0,1.2c0,0,0,0.1-0.1,0.1c0,0-0.1,0-0.2,0c-0.1,0-0.2,0-0.2,0c0,0-0.1,0-0.2,0c-0.1,0-0.2,0-0.2,0
				c-0.1,0-0.1,0-0.1-0.1c0-0.3,0-0.7,0-1.2c0-0.5,0-0.9,0-1.2c0-0.4,0-1,0-1.7c-0.6,0-1.1,0.1-1.3,0.1c0,0,0,0,0,0c0,0,0-0.1,0-0.2
				c0-0.1,0-0.2,0-0.2c0-0.1,0-0.2,0-0.3c0,0,0,0,0.1,0l0,0c0.8,0,1.4,0.1,1.7,0.1c0.2,0,0.6,0,1.2-0.1c0.4,0,0.5,0,0.5,0
				c0.1,0,0.1,0,0.1,0.1c0,0,0,0.1,0,0.3c0,0,0,0.1,0,0.1C74.8,42.3,74.8,42.4,74.8,42.4z"/>
			<path class="st2" d="M79.1,46.6C79.1,46.6,79,46.6,79.1,46.6c-0.1,0-0.2,0-0.3,0c-0.1,0-0.2,0-0.2,0c0,0-0.1,0-0.2,0
				c-0.1,0-0.2,0-0.2,0c-0.1,0-0.1,0-0.1-0.1c-0.1-0.2-0.3-0.6-0.6-1.4c0-0.1-0.1-0.1-0.3-0.2c0,0-0.1,0-0.3,0c-0.3,0-0.5,0-0.6,0
				c0,0-0.1,0.1-0.1,0.2c0,0.2,0,0.4,0,0.7c0,0.3,0,0.6,0,0.7c0,0,0,0.1-0.1,0.1c0,0-0.1,0-0.2,0c-0.1,0-0.2,0-0.2,0
				c0,0-0.1,0-0.2,0c-0.1,0-0.1,0-0.2,0c-0.1,0-0.1,0-0.1-0.1c0-0.3,0-0.6,0-1.1c0-0.5,0-0.9,0-1.1c0-0.7,0-1.5-0.1-2.3l0-0.1
				c0,0,0-0.1,0.1-0.1c0.2,0,0.5,0,0.9,0c0.4,0,0.7,0,0.9,0c0.5,0,0.9,0.1,1.3,0.4c0.3,0.3,0.5,0.6,0.5,1.1c0,0.3,0,0.6-0.1,0.8
				c-0.1,0.2-0.3,0.4-0.6,0.6c0,0-0.1,0.1-0.1,0.1c0,0,0.1,0.3,0.4,0.9C78.9,46.2,79.1,46.5,79.1,46.6z M78.1,43.5
				c0-0.4-0.1-0.7-0.4-0.8c-0.2-0.1-0.5-0.2-1-0.2c-0.4,0-0.6,0-0.6,0.1c0,0.1,0,0.5,0,1v0.7c0,0,0,0,0,0c0,0,0.1,0,0.2,0
				c0.2,0,0.5,0,0.7,0C77.8,44.3,78.1,44,78.1,43.5z"/>
			<path class="st2" d="M80.5,46.5c0,0,0,0.1-0.1,0.1c0,0-0.1,0-0.2,0c-0.1,0-0.2,0-0.2,0c0,0-0.1,0-0.2,0c-0.1,0-0.2,0-0.2,0
				c-0.1,0-0.1,0-0.1-0.1c0-0.3,0-0.7,0-1.2c0-0.5,0-0.9,0-1.2c0-0.3,0-0.6,0-1.1c0-0.5,0-0.9,0-1.1c0-0.1,0-0.1,0.1-0.1
				c0,0,0.1,0,0.2,0c0.1,0,0.2,0,0.2,0c0,0,0.1,0,0.2,0c0.1,0,0.1,0,0.2,0c0.1,0,0.1,0,0.1,0.1c0,0.3,0,0.6,0,1.2c0,0.5,0,0.9,0,1.2
				c0,0.3,0,0.7,0,1.2C80.5,45.9,80.5,46.3,80.5,46.5z"/>
			<path class="st2" d="M84.6,45.9c0,0,0,0.1,0,0.2c0,0.1,0,0.1,0,0.2c0,0.1,0,0.2-0.1,0.4c0,0,0,0.1-0.1,0.1c0,0-0.1,0-0.1,0
				c-0.3,0-0.7-0.1-1.3-0.1c-0.2,0-0.4,0-0.8,0c-0.3,0-0.6,0-0.8,0c-0.1,0-0.1,0-0.1-0.1c0-0.3,0-0.6,0-1.2c0-0.5,0-0.9,0-1.2
				c0-0.3,0-0.7,0-1.5c0-0.2,0-0.5,0-0.8l0,0c0-0.1,0-0.1,0.1-0.1c0.2,0,0.4,0,0.7,0c0.3,0,0.6,0,0.7,0c0.2,0,0.4,0,0.7,0
				c0.3,0,0.6,0,0.7,0c0.1,0,0.2,0,0.2,0.1c0,0.3,0.1,0.5,0.1,0.6c0,0.1,0,0.1-0.1,0.1c-0.2,0-0.5,0-0.9,0c-0.4,0-0.7,0-0.9,0
				c-0.2,0-0.3,0-0.4,0.1c-0.1,0.1-0.1,0.2-0.1,0.4v0.5c0,0.1,0,0.2,0,0.2c0,0.1,0.1,0.1,0.2,0.1c0,0,0.1,0,0.1,0c0.1,0,0.1,0,0.1,0
				c0.5,0,0.9,0,1.2,0c0.1,0,0.3,0,0.5,0c0.1,0,0.1,0,0.1,0.1c0,0.1,0,0.2,0,0.3c0,0.2,0,0.3,0,0.3c0,0,0,0.1-0.1,0.1
				c0,0-0.1,0-0.3,0c-0.1,0-0.4,0-0.9,0c-0.4,0-0.6,0-0.7,0c-0.1,0-0.1,0.1-0.2,0.1c0,0,0,0.1,0,0.3v0.5c0,0.2,0,0.4,0.1,0.4
				c0.1,0,0.2,0.1,0.4,0.1l0.4,0c0.2,0,0.6,0,1.4-0.1L84.6,45.9C84.6,45.8,84.6,45.9,84.6,45.9z"/>
			<path class="st2" d="M88,42.1c0,0.1-0.1,0.2-0.2,0.3c0,0.1-0.1,0.2-0.1,0.3c0,0,0,0-0.1,0c0,0-0.1,0-0.3-0.1
				c-0.2-0.1-0.4-0.1-0.6-0.1c-0.4,0-0.7,0.2-0.7,0.6c0,0.2,0.2,0.4,0.5,0.5c0.5,0.3,0.8,0.4,0.8,0.4c0.3,0.2,0.5,0.6,0.5,1
				c0,0.5-0.2,0.9-0.6,1.2c-0.4,0.3-0.8,0.4-1.4,0.4c-0.3,0-0.4,0-0.4-0.1c0-0.1,0-0.2-0.1-0.4c0-0.1,0-0.2-0.1-0.3c0,0,0,0,0-0.1
				c0,0,0-0.1,0.1-0.1c0.1,0,0.1,0,0.3,0c0.1,0,0.2,0,0.3,0c0.7,0,1.1-0.2,1.1-0.7c0-0.2-0.1-0.4-0.4-0.6c-0.5-0.3-0.8-0.5-0.8-0.5
				c-0.3-0.2-0.4-0.5-0.4-0.9c0-0.4,0.1-0.8,0.4-1c0.3-0.2,0.6-0.4,1.1-0.4c0.2,0,0.4,0,0.7,0.1C87.6,41.9,87.8,42,88,42.1
				C88,42.1,88,42.1,88,42.1z"/>
			<path class="st2" d="M54.8,52.7c0,0.3,0,0.6-0.1,0.7c0,0.1-0.1,0.1-0.1,0.1c-0.2,0-0.4,0-0.8,0c-0.3,0-0.6,0-0.8,0
				c-0.2,0-0.4,0-0.7,0c-0.3,0-0.6,0-0.7,0c-0.1,0-0.1,0-0.1-0.1c0-0.3,0-0.6,0-1.1c0-0.5,0-0.9,0-1.1c0-0.3,0-0.7,0-1.2
				c0-0.5,0-0.9,0-1.2c0,0,0-0.1,0.1-0.1c0,0,0.1,0,0.2,0c0.1,0,0.2,0,0.2,0c0,0,0.1,0,0.2,0c0.1,0,0.2,0,0.2,0c0.1,0,0.1,0,0.1,0.1
				c0,0.2,0,0.6,0,1.1c0,0.5,0,0.9,0,1.1c0,0.1,0,0.3,0,0.5c0,0.2,0,0.4,0,0.5c0,0.5,0,0.8,0.1,0.8c0.9,0,1.5,0,2-0.1
				c0,0,0.1,0,0.2,0C54.7,52.6,54.7,52.6,54.8,52.7C54.8,52.6,54.8,52.6,54.8,52.7z"/>
			<path class="st2" d="M56.2,53.3c0,0,0,0.1-0.1,0.1c0,0-0.1,0-0.2,0c-0.1,0-0.2,0-0.2,0c0,0-0.1,0-0.2,0c-0.1,0-0.2,0-0.2,0
				c-0.1,0-0.1,0-0.1-0.1c0-0.3,0-0.7,0-1.2c0-0.5,0-0.9,0-1.2c0-0.3,0-0.6,0-1.1c0-0.5,0-0.9,0-1.2c0-0.1,0-0.1,0.1-0.1
				c0,0,0.1,0,0.2,0c0.1,0,0.2,0,0.2,0c0,0,0.1,0,0.2,0c0.1,0,0.1,0,0.2,0c0.1,0,0.1,0,0.1,0.1c0,0.3,0,0.6,0,1.2c0,0.5,0,0.9,0,1.2
				c0,0.3,0,0.7,0,1.2C56.2,52.7,56.2,53.1,56.2,53.3z"/>
			<path class="st2" d="M61.9,53.3C61.9,53.4,61.9,53.4,61.9,53.3c-0.1,0.1-0.2,0.1-0.3,0.1c-0.1,0-0.2,0-0.2,0c0,0-0.1,0-0.2,0
				c-0.1,0-0.2,0-0.2,0c-0.1,0-0.1,0-0.1-0.1c0-0.3,0-0.7,0-1.3c0-0.6,0-1,0-1.3c0,0,0-0.1,0-0.1c0,0,0,0-0.1,0
				c-0.1,0.3-0.4,0.9-0.9,2c-0.1,0.2-0.2,0.5-0.3,0.8c0,0-0.1,0-0.3,0c-0.2,0-0.3,0-0.4-0.1c-0.1-0.2-0.2-0.4-0.3-0.8
				c-0.2-0.5-0.5-1.1-0.9-2c0,0,0,0,0,0c0,0,0,0,0,0.1c0,0.3,0,0.7,0,1.3c0,0.6,0,1,0,1.3c0,0.1,0,0.1-0.1,0.1c0,0-0.1,0-0.2,0
				c-0.1,0-0.1,0-0.2,0c0,0-0.1,0-0.2,0c-0.1,0-0.1,0-0.2,0c-0.1,0-0.1,0-0.1-0.1c0-0.3,0-0.6,0-1.1c0-0.5,0-0.9,0-1.1
				c0-0.3,0-0.7,0-1.2c0-0.5,0-0.9,0-1.2c0,0,0-0.1,0.1-0.1c0.3,0,0.6-0.1,0.7-0.1c0,0,0.1,0,0.1,0.1c0.6,1.2,1.1,2.3,1.5,3.3
				c0.1,0.2,0.2,0.3,0.2,0.3c0,0,0.1-0.1,0.2-0.3c0.3-0.7,0.8-1.8,1.3-3.3c0-0.1,0.1-0.1,0.1-0.1c0.1,0,0.2,0,0.4,0
				c0.2,0,0.3,0,0.4,0c0.1,0,0.1,0,0.1,0.1c0,0.3,0,0.7,0,1.2c0,0.5,0,0.9,0,1.2c0,0.3,0,0.6,0,1.1C61.9,52.7,61.9,53.1,61.9,53.3z"
				/>
			<path class="st2" d="M63.7,53.3c0,0,0,0.1-0.1,0.1c0,0-0.1,0-0.2,0c-0.1,0-0.2,0-0.2,0c0,0-0.1,0-0.2,0c-0.1,0-0.2,0-0.2,0
				c-0.1,0-0.1,0-0.1-0.1c0-0.3,0-0.7,0-1.2c0-0.5,0-0.9,0-1.2c0-0.3,0-0.6,0-1.1c0-0.5,0-0.9,0-1.2c0-0.1,0-0.1,0.1-0.1
				c0,0,0.1,0,0.2,0c0.1,0,0.2,0,0.2,0c0,0,0.1,0,0.2,0c0.1,0,0.1,0,0.2,0c0.1,0,0.1,0,0.1,0.1c0,0.3,0,0.6,0,1.2c0,0.5,0,0.9,0,1.2
				c0,0.3,0,0.7,0,1.2C63.6,52.7,63.7,53.1,63.7,53.3z"/>
			<path class="st2" d="M67.7,49.2C67.7,49.3,67.7,49.3,67.7,49.2c-0.1,0.1-0.5,0.1-1.3,0c0,0.7,0,1.3,0,1.7c0,0.3,0,0.7,0,1.2
				c0,0.5,0,0.9,0,1.2c0,0,0,0.1-0.1,0.1c0,0-0.1,0-0.2,0c-0.1,0-0.2,0-0.2,0c0,0-0.1,0-0.2,0c-0.1,0-0.2,0-0.2,0
				c-0.1,0-0.1,0-0.1-0.1c0-0.3,0-0.7,0-1.2c0-0.5,0-0.9,0-1.2c0-0.4,0-1,0-1.7c-0.6,0-1.1,0.1-1.3,0.1c0,0,0,0,0,0c0,0,0-0.1,0-0.2
				c0-0.1,0-0.2,0-0.2c0-0.1,0-0.2,0.1-0.3c0,0,0,0,0.1,0l0,0c0.8,0,1.4,0.1,1.7,0.1c0.2,0,0.6,0,1.2-0.1c0.4,0,0.5,0,0.5,0
				c0.1,0,0.1,0,0.1,0.1c0,0,0,0.1,0,0.3c0,0,0,0.1,0,0.1C67.7,49.1,67.7,49.2,67.7,49.2z"/>
			<path class="st2" d="M71.5,52.7c0,0,0,0.1,0,0.2c0,0.1,0,0.1,0,0.2c0,0.1,0,0.2-0.1,0.4c0,0,0,0.1-0.1,0.1c0,0-0.1,0-0.1,0
				c-0.3,0-0.7-0.1-1.3-0.1c-0.2,0-0.4,0-0.8,0c-0.3,0-0.6,0-0.8,0c-0.1,0-0.1,0-0.1-0.1c0-0.3,0-0.6,0-1.2c0-0.5,0-0.9,0-1.2
				c0-0.3,0-0.7,0-1.5c0-0.2,0-0.5,0-0.8l0,0c0-0.1,0-0.1,0.1-0.1c0.2,0,0.4,0,0.7,0c0.3,0,0.6,0,0.7,0c0.2,0,0.4,0,0.7,0
				c0.3,0,0.6,0,0.7,0c0.1,0,0.2,0,0.2,0.1c0.1,0.3,0.1,0.5,0.1,0.6c0,0.1,0,0.1-0.1,0.1c-0.2,0-0.5,0-0.9,0c-0.4,0-0.7,0-0.9,0
				c-0.2,0-0.3,0-0.4,0.1c-0.1,0-0.1,0.2-0.1,0.4v0.5c0,0.1,0,0.2,0,0.2c0,0.1,0.1,0.1,0.2,0.1c0,0,0.1,0,0.1,0c0.1,0,0.1,0,0.1,0
				c0.5,0,0.9,0,1.2,0c0.1,0,0.3,0,0.5,0c0.1,0,0.1,0,0.1,0.1c0,0.1,0,0.2,0,0.3c0,0.2,0,0.3,0,0.3c0,0,0,0.1-0.1,0.1
				c0,0-0.1,0-0.3,0c-0.1,0-0.4,0-0.9,0c-0.4,0-0.6,0-0.7,0c-0.1,0-0.1,0.1-0.2,0.1c0,0,0,0.1,0,0.3v0.5c0,0.2,0,0.4,0.1,0.4
				c0.1,0,0.2,0.1,0.4,0.1l0.4,0c0.2,0,0.6,0,1.4-0.1L71.5,52.7C71.5,52.6,71.5,52.7,71.5,52.7z"/>
			<path class="st2" d="M76.4,51c0,0.6-0.2,1.2-0.6,1.7c-0.4,0.5-0.9,0.8-1.6,0.8c-0.1,0-0.3,0-0.6,0c-0.2,0-0.4,0-0.6,0
				c-0.1,0-0.3,0-0.5,0c-0.2,0-0.4,0-0.5,0c-0.1,0-0.1,0-0.1-0.1c0-0.3,0-0.6,0-1.1c0-0.5,0-0.9,0-1.1c0-0.3,0-0.7,0-1.2
				c0-0.5,0-0.9,0-1.2c0,0,0-0.1,0.1-0.1c0.1,0,0.2,0,0.4,0c0.2,0,0.3,0,0.4,0c0.1,0,0.2,0,0.4,0c0.2,0,0.3,0,0.4,0
				c0.8,0,1.4,0.2,1.8,0.5c0.3,0.2,0.5,0.5,0.7,0.9C76.3,50.2,76.4,50.6,76.4,51z M75.5,51c0-0.5-0.1-0.9-0.4-1.2
				c-0.3-0.3-0.7-0.5-1.2-0.5c-0.4,0-0.6,0-0.5,0c-0.3,0-0.4,0.1-0.4,0.1c0,0.2,0,0.4,0,0.8c0,0.4,0,0.6,0,0.8c0,0.2,0,0.4,0,0.8
				c0,0.3,0,0.6,0,0.8c0,0.1,0.1,0.1,0.4,0.2c0,0,0.1,0,0.5,0c0.3,0,0.5,0,0.6-0.1c0.2-0.1,0.4-0.2,0.5-0.4
				C75.4,51.9,75.5,51.5,75.5,51z"/>
		</g>
		<g>
			<rect x="48" y="34.5" width="0.6" height="19.2"/>
		</g>
		<g>
			<g>
				<g>
					<polygon points="42.8,42.3 20.4,42.3 17.7,42.3 14.4,50.4 13.2,53.2 15.9,53.2 38.9,53.2 41.6,53.2 45.5,42.3 					"/>
				</g>
			</g>
			<g>
				<g>
					<g>
						<path class="st0" d="M9.2,51.4l1.8-4.7c0,0-1.3-4.4,1.4-5.6c0,0,2.3-2.3,6.5-0.1h23.4l-3.6,10.5"/>
					</g>
				</g>
				<g>
					<g>
						<path d="M15.9,46c0,2.4-2,4.4-4.4,4.4c-2.4,0-4.4-2-4.4-4.4c0-2.4,2-4.4,4.4-4.4C13.9,41.6,15.9,43.6,15.9,46z"/>
					</g>
				</g>
				<g>
					<g>
						<g>
							<path class="st3" d="M14.5,37.7c0,0,0,0.3-0.2,1.1c0,0-0.3,0.9-0.2,1.5c0,0,1.5-0.2,2.1-0.1c0,0-0.1-1.6,0.5-2.5
								c0,0,0.8-1.6-0.1-2.6"/>
						</g>
						<g>
							<path class="st4" d="M13.9,40.4L13.9,40.4c-0.1-0.8,0.2-1.6,0.2-1.6c0.3-0.7,0.2-1,0.2-1.1l0.1,0c0,0,0,0.4-0.2,1.1
								c0,0-0.3,0.8-0.3,1.4c0.3,0,1.4-0.2,2-0.1c0-0.3,0-1.6,0.5-2.4c0-0.1,0.7-1.5-0.1-2.5l0.1-0.1c0.9,1,0.2,2.6,0.1,2.6l0,0
								c-0.6,0.9-0.5,2.4-0.4,2.5l0,0.1l-0.1,0C15.5,40.1,14,40.4,13.9,40.4L13.9,40.4z"/>
						</g>
					</g>
					<g>
						<g>
							<g>
								<path class="st5" d="M19.2,33.9c0,0,0.2,0.3,0.1,0.5L16,34.9v-0.3"/>
							</g>
						</g>
						<g>
							<g>
								<path class="st6" d="M19,33.7c0,0,0.3,0,0.2,0.3l-3,0.8"/>
							</g>
						</g>
						<g>
							<g>
								<path class="st4" d="M19,33.3c0,0,0.2,0.1,0.1,0.4l-2.9,1l-0.2-0.4"/>
							</g>
						</g>
						<g>
							<g>
								<path class="st5" d="M18.8,33c0,0,0.3,0.2,0.3,0.4l-2.9,1.2l-0.2-0.3"/>
							</g>
						</g>
						<g>
							<g>
								<path class="st6" d="M16.2,34.5l2.8-1.4c0,0,0.1-0.2-0.3-0.4l-2.9,1.8"/>
							</g>
						</g>
						<g>
							<g>
								<path class="st4" d="M16,34.5l2.8-1.7c0,0,0.1-0.3-0.2-0.4c-0.3-0.1-2.8,2.1-2.8,2.1"/>
							</g>
						</g>
						<g>
							<g>
								<path class="st5" d="M15.9,34.4l2.7-2c0,0,0.2-0.1-0.2-0.5c-0.4-0.3-2.7,2.3-2.7,2.3"/>
							</g>
						</g>
						<g>
							<g>
								<path class="st6" d="M15.9,34.3l2.6-2.2c0,0-0.1-0.2-0.3-0.4l-2.4,2.4"/>
							</g>
						</g>
						<g>
							<g>
								<path class="st4" d="M15.7,34.1l0.2,0.1l2.4-2.3c0,0-0.2-0.3-0.3-0.3"/>
							</g>
						</g>
						<g>
							<g>
								<path class="st5" d="M17.7,31.4c0,0,0.3,0,0.4,0.2l-2.3,2.4l0,0"/>
							</g>
						</g>
						<g>
							<g>
								<path class="st6" d="M17.4,31.3c0,0,0.2-0.1,0.5,0.2l-2.2,2.7L15.4,34"/>
							</g>
						</g>
						<g>
							<g>
								<path class="st4" d="M17,31.1c0,0,0.4,0,0.5,0.3L15.6,34"/>
							</g>
						</g>
						<g>
							<g>
								<path class="st5" d="M16.7,31.1c0,0,0.2,0,0.5,0.1l-1.6,2.7l-0.2-0.1"/>
							</g>
						</g>
						<g>
							<g>
								<path class="st6" d="M16.4,31c0,0,0.4,0,0.4,0.1l-1.4,2.8l-0.2,0"/>
							</g>
						</g>
						<g>
							<g>
								<path class="st6" d="M15.1,33.9l0.8-3c0,0-0.2-0.1-0.4,0C15.4,31,15,34,15,34"/>
							</g>
						</g>
						<g>
							<g>
								<path class="st4" d="M15.1,33.8l0.6-2.9c0,0-0.3-0.1-0.5,0l-0.2,3"/>
							</g>
						</g>
						<g>
							<g>
								<path class="st5" d="M14.9,31c0,0,0.2-0.1,0.4,0L15,33.7h-0.1"/>
							</g>
						</g>
						<g>
							<g>
								<path class="st6" d="M15,33.7V31c0,0-0.3,0-0.3,0.1C14.6,31.1,14.9,33.7,15,33.7"/>
							</g>
						</g>
						<g>
							<g>
								<polyline class="st6" points="14.6,33.6 13.6,31.3 13.3,31.4 14.5,33.6 								"/>
							</g>
						</g>
						<g>
							<g>
								<polyline class="st4" points="14.9,33.7 14.8,31 14.5,31 14.8,33.7 								"/>
							</g>
						</g>
						<g>
							<g>
								<polyline class="st4" points="14.3,33.6 13.1,31.5 13.4,31.4 14.5,33.6 								"/>
							</g>
						</g>
						<g>
							<g>
								<polyline class="st6" points="13.9,31.1 14.4,31 14.7,33.7 14.6,33.7 								"/>
							</g>
						</g>
						<g>
							<g>
								<polyline class="st5" points="14.7,33.6 13.8,31.2 13.5,31.3 14.6,33.6 								"/>
							</g>
						</g>
						<g>
							<g>
								<polyline class="st4" points="13.8,31.2 14.1,31.1 14.7,33.7 								"/>
							</g>
						</g>
						<g>
							<g>
								<polyline class="st5" points="14.8,33.6 14.6,31 14.3,31 14.7,33.7 								"/>
							</g>
						</g>
						<g>
							<g>
								<path class="st5" d="M15.8,30.9c0,0,0.2-0.1,0.4,0l-1,3h-0.1"/>
							</g>
						</g>
						<g>
							<g>
								<path class="st4" d="M16.1,30.9c0,0,0.1-0.1,0.4,0.1l-1.2,2.9l-0.2,0"/>
							</g>
						</g>
						<g>
							<g>
								<path class="st5" d="M16.4,35.4c0,0.1,1.2,1.5,1.2,1.5l0.2-0.2l-1.4-1.5"/>
							</g>
						</g>
						<g>
							<g>
								<polyline class="st6" points="16.3,35.1 17.8,36.7 18.1,36.5 16.2,34.8 								"/>
							</g>
						</g>
						<g>
							<g>
								<polyline class="st4" points="16.3,34.9 18.1,36.6 18.3,36.3 16.4,34.8 								"/>
							</g>
						</g>
						<g>
							<g>
								<path class="st5" d="M16.3,34.8l1.9,1.5c0,0,0.3,0,0.3-0.1c0-0.1,0-0.1,0-0.1l-2-1.3"/>
							</g>
						</g>
						<g>
							<g>
								<path class="st4" d="M16.5,34.8l2.7-0.4c0,0,0.1,0.2,0,0.3L16.5,34.8"/>
							</g>
						</g>
						<g>
							<g>
								<path class="st6" d="M16.3,34.8l3-0.1c0,0,0.1,0.1,0,0.3l-3.2-0.2"/>
							</g>
						</g>
						<g>
							<g>
								<path class="st5" d="M15.9,34.9l3.3,0.2c0,0,0.1,0.2-0.2,0.4l-3.2-0.5"/>
							</g>
						</g>
						<g>
							<g>
								<path class="st4" d="M16.4,34.9c0.1,0,2.7,0.5,2.7,0.5s0,0.2-0.3,0.4l-2.1-0.8"/>
							</g>
						</g>
						<g>
							<g>
								<path class="st6" d="M18.7,35.7c0,0,0.3,0.3-0.2,0.5l-1.7-1.1"/>
							</g>
						</g>
					</g>
					<g>
						<g>
							<path class="st4" d="M14.9,36.6c-1,0-1.8-0.7-1.8-1.7c0-0.9,0.8-1.7,1.8-1.7c1,0,1.8,0.8,1.8,1.7
								C16.7,35.9,15.9,36.6,14.9,36.6z M14.9,33.3c-1,0-1.7,0.7-1.7,1.6c0,0.9,0.8,1.6,1.7,1.6c1,0,1.7-0.7,1.7-1.6
								C16.6,34.1,15.8,33.3,14.9,33.3z"/>
						</g>
					</g>
					<g>
						<g>
							<path class="st4" d="M13.3,35.7c0,0,1.1-0.1,1.4-0.4c0,0,0.5-0.3,0.4-0.3c-0.1,0,0.8-0.4,1.6,0c0,0,0-1.6-1.8-1.7
								C14.9,33.2,12.4,33.5,13.3,35.7z"/>
						</g>
					</g>
					<g>
						<g>
							<path class="st4" d="M15.6,34.8c0,0,0.4,1.1-0.8,1.9c0,0-0.2,0.3,0.2,0.2c0.3-0.1,0.6-0.3,1.1-0.8c0.6-0.5,0.7-0.8,0.5-1.6"
								/>
						</g>
					</g>
					<g>
						<g>
							<path class="st5" d="M14.2,36.6c0,0,0.1,0.2-0.1,0.6c-0.2,0.4-0.3,0.8,0.4,0.9c0,0,0.9-0.3,0.7-1.5"/>
						</g>
					</g>
					<g>
						<g>
							<path class="st3" d="M14.5,35.3c0,0-0.6,0.4-1.3,0.3c0,0-1.2,1-1.3,1.4c0,0-0.3,0.3,0.7,0c1-0.3,1.7-0.5,1.9-0.4
								c0,0,0-1,0.4-1.2l-0.1-0.2L14.5,35.3z"/>
						</g>
						<g>
							<path class="st4" d="M11.9,37.3c0,0-0.2,0-0.2-0.1c0-0.1,0-0.1,0-0.2c0.1-0.4,1.2-1.3,1.4-1.4l0,0l0,0c0.6,0,1.2-0.3,1.2-0.3
								l0,0l0.3-0.1l0.2,0.3l-0.1,0c-0.2,0.1-0.3,0.7-0.3,1.1v0.1l-0.1,0c0,0,0,0-0.1,0c-0.2,0-0.7,0.1-1.3,0.3
								c-0.2,0-0.3,0.1-0.5,0.1C12.3,37.2,12.1,37.3,11.9,37.3z M11.9,37.1C11.9,37.1,11.9,37.1,11.9,37.1c0.2,0,0.4,0,0.7-0.1
								c0.2-0.1,0.3-0.1,0.5-0.1c0.6-0.2,1.1-0.3,1.3-0.3c0-0.2,0.1-0.9,0.3-1.1l0-0.1l-0.2,0c-0.1,0.1-0.7,0.4-1.3,0.4
								C12.8,36,12,36.8,11.9,37.1L11.9,37.1L11.9,37.1C11.9,37.1,11.9,37.1,11.9,37.1z"/>
						</g>
					</g>
					<g>
						<g>
							<path class="st4" d="M13.1,36.1c0,0,0.6-0.2,0.3,0.2C13.4,36.4,13.3,36.4,13.1,36.1z"/>
						</g>
					</g>
					<g>
						<g>
							<path class="st0" d="M14.9,35.4c0,0-0.5,0.8-0.3,1.3c0,0,0.4,0.4,0.8-0.1c0.5-0.5,0.7-1,0.4-1.7
								C15.8,34.9,15.2,34.6,14.9,35.4z"/>
						</g>
					</g>
					<g>
						<g>
							<path class="st5" d="M15,34.2c0,0,0.2,0.6-0.2,0.9c0,0,1-0.1,1.1,0.2C15.8,35.2,16.2,34.5,15,34.2z"/>
						</g>
					</g>
					<g>
						<g>
							<path class="st0" d="M15.1,35.3c0,0.1-0.1,0.3-0.3,0.3c-0.1,0-0.3-0.1-0.3-0.3c0-0.1,0.1-0.3,0.3-0.3
								C15,35,15.1,35.1,15.1,35.3z"/>
						</g>
						<g>
							<path class="st4" d="M14.8,35.6c-0.2,0-0.3-0.1-0.3-0.3c0-0.2,0.1-0.3,0.3-0.3c0.2,0,0.3,0.1,0.3,0.3
								C15.1,35.4,15,35.6,14.8,35.6z M14.8,35c-0.1,0-0.2,0.1-0.2,0.2c0,0.1,0.1,0.2,0.2,0.2c0.1,0,0.2-0.1,0.2-0.2
								C15,35.1,14.9,35,14.8,35z"/>
						</g>
					</g>
				</g>
				<g>
					<g>
						<path class="st7" d="M20.3,46c0,2.4-2,4.4-4.4,4.4c-2.4,0-4.4-2-4.4-4.4c0-2.4,2-4.4,4.4-4.4C18.3,41.6,20.3,43.6,20.3,46z"/>
					</g>
				</g>
				<g>
					<g>
						<path class="st0" d="M20.3,46.1c0,2.4-2,4.4-4.4,4.4s-4.4-2-4.4-4.4c0-2.4,2-4.4,4.4-4.4S20.3,43.7,20.3,46.1z"/>
					</g>
				</g>
				<g>
					<g>
						<path d="M11.5,42.2L11,41.8c0,0,0.8-1,2.2-1.6c1.3-0.5,3.4-0.9,6.2,0.6l-0.3,0.6c-2-1.1-3.9-1.3-5.6-0.6
							C12.2,41.3,11.5,42.1,11.5,42.2z"/>
					</g>
				</g>
				<g>
					<g>
						<polygon points="38.8,51.5 9,51.5 10,49 10.2,49.1 9.4,51.2 38.5,51.2 42,41 18.7,41 18.7,40.7 42.4,40.7 						"/>
					</g>
				</g>
				<g>
					<defs>
						<path id="SVGID_1_" d="M20.3,46c0,2.4-2,4.4-4.4,4.4c-2.4,0-4.4-2-4.4-4.4c0-2.4,2-4.4,4.4-4.4C18.3,41.6,20.3,43.6,20.3,46z"
							/>
					</defs>
					<clipPath id="SVGID_2_">
						<use xlink:href="#SVGID_1_"  style="overflow:visible;"/>
					</clipPath>
					<g class="st8">
						<g>
							<g>
								<rect x="13.4" y="41.6" class="st6" width="5.3" height="0.6"/>
							</g>
						</g>
						<g>
							<g>
								<polygon class="st6" points="13.3,50.5 18.5,50.5 18.7,49.9 13.4,49.9 								"/>
							</g>
						</g>
						<g>
							<g>
								<rect x="12.5" y="42.6" class="st6" width="7" height="0.6"/>
							</g>
						</g>
						<g>
							<g>
								<rect x="11.8" y="43.6" class="st6" width="8.4" height="0.6"/>
							</g>
						</g>
						<g>
							<g>
								<rect x="11.3" y="44.7" class="st6" width="9.5" height="0.6"/>
							</g>
						</g>
						<g>
							<g>
								<rect x="11.3" y="45.7" class="st6" width="9.5" height="0.6"/>
							</g>
						</g>
						<g>
							<g>
								<rect x="11.3" y="46.7" class="st6" width="9.5" height="0.6"/>
							</g>
						</g>
						<g>
							<g>
								<rect x="11.3" y="47.7" class="st6" width="9.5" height="0.6"/>
							</g>
						</g>
						<g>
							<g>
								<rect x="12.4" y="48.7" class="st6" width="7.3" height="0.6"/>
							</g>
						</g>
					</g>
				</g>
				<g>
					<defs>
						<polygon id="SVGID_3_" points="23.2,51.4 37.4,51.4 40.9,40.8 26.3,40.8 16.3,40.8 13.3,51.4 						"/>
					</defs>
					<clipPath id="SVGID_4_">
						<use xlink:href="#SVGID_3_"  style="overflow:visible;"/>
					</clipPath>
					<g class="st9">
						<g>
							<g>
								<rect x="21.9" y="42.3" class="st2" width="19.2" height="0.4"/>
							</g>
						</g>
						<g>
							<g>
								<rect x="21.9" y="43.1" class="st2" width="19.2" height="0.4"/>
							</g>
						</g>
						<g>
							<g>
								<rect x="21.9" y="43.9" class="st2" width="19.2" height="0.4"/>
							</g>
						</g>
						<g>
							<g>
								<rect x="21.9" y="44.7" class="st2" width="19.2" height="0.4"/>
							</g>
						</g>
						<g>
							<g>
								<rect x="21.9" y="45.6" class="st2" width="19.2" height="0.4"/>
							</g>
						</g>
						<g>
							<g>
								<rect x="21.9" y="46.4" class="st2" width="19.2" height="0.4"/>
							</g>
						</g>
						<g>
							<g>
								<rect x="21.9" y="47.2" class="st2" width="19.2" height="0.4"/>
							</g>
						</g>
						<g>
							<g>
								<rect x="21.9" y="48" class="st2" width="19.2" height="0.4"/>
							</g>
						</g>
						<g>
							<g>
								<rect x="21.9" y="48.8" class="st2" width="19.2" height="0.4"/>
							</g>
						</g>
						<g>
							<g>
								<rect x="21.9" y="49.6" class="st2" width="19.2" height="0.4"/>
							</g>
						</g>
					</g>
				</g>
				<g>
					<defs>
						<path id="SVGID_5_" d="M24.6,46c0,2.4-2,4.4-4.4,4.4c-2.4,0-4.4-2-4.4-4.4c0-2.4,2-4.4,4.4-4.4C22.6,41.6,24.6,43.6,24.6,46z"
							/>
					</defs>
					<clipPath id="SVGID_6_">
						<use xlink:href="#SVGID_5_"  style="overflow:visible;"/>
					</clipPath>
					<g class="st10">
						<g>
							<g>
								<rect x="17.6" y="41.6" class="st5" width="5.3" height="0.6"/>
							</g>
						</g>
						<g>
							<g>
								<rect x="17.6" y="49.9" class="st5" width="5.3" height="0.6"/>
							</g>
						</g>
						<g>
							<g>
								<rect x="16.7" y="42.6" class="st5" width="7" height="0.6"/>
							</g>
						</g>
						<g>
							<g>
								<rect x="16" y="43.6" class="st5" width="8.4" height="0.6"/>
							</g>
						</g>
						<g>
							<g>
								<rect x="15.5" y="44.7" class="st5" width="9.5" height="0.6"/>
							</g>
						</g>
						<g>
							<g>
								<rect x="15.5" y="45.7" class="st5" width="9.5" height="0.6"/>
							</g>
						</g>
						<g>
							<g>
								<rect x="15.5" y="46.7" class="st5" width="9.5" height="0.6"/>
							</g>
						</g>
						<g>
							<g>
								<rect x="15.5" y="47.7" class="st5" width="9.5" height="0.6"/>
							</g>
						</g>
						<g>
							<g>
								<rect x="16.5" y="48.7" class="st5" width="7.3" height="0.6"/>
							</g>
						</g>
					</g>
				</g>
				<g>
					<g>
						<path class="st0" d="M24.6,46.1c0,2.4-2,4.4-4.4,4.4c-2.4,0-4.4-2-4.4-4.4c0-2.4,2-4.4,4.4-4.4C22.6,41.7,24.6,43.7,24.6,46.1
							z"/>
					</g>
				</g>
				<g>
					<defs>
						<path id="SVGID_7_" d="M24.6,46c0,2.4-2,4.4-4.4,4.4c-2.4,0-4.4-2-4.4-4.4c0-2.4,2-4.4,4.4-4.4C22.6,41.6,24.6,43.6,24.6,46z"
							/>
					</defs>
					<clipPath id="SVGID_8_">
						<use xlink:href="#SVGID_7_"  style="overflow:visible;"/>
					</clipPath>
					<g class="st11">
						<g>
							<g>
								<rect x="17.7" y="41.6" class="st5" width="5.3" height="0.6"/>
							</g>
						</g>
						<g>
							<g>
								<polygon class="st5" points="17.6,50.5 22.8,50.5 22.9,49.9 17.7,49.9 								"/>
							</g>
						</g>
						<g>
							<g>
								<rect x="16.8" y="42.6" class="st5" width="7" height="0.6"/>
							</g>
						</g>
						<g>
							<g>
								<rect x="16.1" y="43.6" class="st5" width="8.4" height="0.6"/>
							</g>
						</g>
						<g>
							<g>
								<rect x="15.6" y="44.7" class="st5" width="9.5" height="0.6"/>
							</g>
						</g>
						<g>
							<g>
								<rect x="15.6" y="45.7" class="st5" width="9.5" height="0.6"/>
							</g>
						</g>
						<g>
							<g>
								<rect x="15.6" y="46.7" class="st5" width="9.5" height="0.6"/>
							</g>
						</g>
						<g>
							<g>
								<rect x="15.6" y="47.7" class="st5" width="9.5" height="0.6"/>
							</g>
						</g>
						<g>
							<g>
								<rect x="16.7" y="48.7" class="st5" width="7.3" height="0.6"/>
							</g>
						</g>
					</g>
				</g>
			</g>
			<g>
				<g>
					<g>
						<g>
							<polyline class="st0" points="24.6,48.3 26.1,43.6 27.5,43.6 28.1,46.6 29.1,43.6 30.1,43.6 28.6,48.3 27.3,48.3 26.8,45.3 
								25.7,48.3 							"/>
						</g>
					</g>
					<g>
						<g>
							<polygon class="st0" points="29.7,48.3 31.1,43.6 34.1,43.6 33.9,44.4 32.1,44.4 31.9,45.3 33.6,45.3 33.4,46.1 31.6,46.1 
								31.3,47.5 33.1,47.5 32.9,48.3 							"/>
						</g>
						<g>
							<path class="st0" d="M32.9,48.3h-3.3l1.4-4.7h3.1L34,44.4h-1.8L32,45.3h1.7l-0.2,0.9h-1.8l-0.3,1.3h1.8L32.9,48.3z
								 M29.8,48.2h3.1l0.2-0.7h-1.8l0.4-1.5h1.8l0.2-0.8h-1.7l0.2-1h1.8l0.2-0.7h-3L29.8,48.2z"/>
						</g>
					</g>
					<g>
						<g>
							<path class="st0" d="M38.4,44.9l0.4-1.1c0,0-3.2-1.5-4.4,2.1c0,0-1.5,3.8,3,2.3l0.4-1.2c0,0-3.3,1.8-2.5-1
								C35.3,46.1,36,43.2,38.4,44.9z"/>
						</g>
						<g>
							<path class="st0" d="M35.6,48.7c-0.6,0-1-0.2-1.2-0.5c-0.5-0.8,0-2.1,0-2.2c0.7-2,2-2.5,3-2.5c0.8,0,1.5,0.3,1.5,0.3l0,0
								l-0.4,1.1l0,0c-0.5-0.3-0.9-0.5-1.4-0.5c-1.3,0-1.7,1.6-1.7,1.7c-0.2,0.6-0.2,1,0,1.3c0.1,0.2,0.3,0.3,0.6,0.3
								c0.7,0,1.8-0.6,1.8-0.6l0.1,0l-0.5,1.3l0,0C36.6,48.5,36,48.7,35.6,48.7z M37.3,43.5c-0.9,0-2.2,0.4-2.9,2.4
								c0,0-0.5,1.4,0,2.1c0.2,0.3,0.6,0.5,1.2,0.5c0.5,0,1.1-0.1,1.7-0.4l0.4-1.1c-0.3,0.1-1.1,0.5-1.7,0.5c-0.3,0-0.5-0.1-0.7-0.3
								c-0.2-0.3-0.2-0.7,0-1.4c0,0,0.5-1.7,1.8-1.7c0.4,0,0.9,0.2,1.4,0.5l0.3-1C38.6,43.8,38,43.5,37.3,43.5z"/>
						</g>
					</g>
				</g>
				<g>
					<g>
						<path d="M27.2,50.2L27,50.9h0.1c0,0,0.1,0,0.1,0c0,0,0.1,0,0.1-0.1c0,0,0.1-0.1,0.1-0.1h0l-0.1,0.3h-0.7l0,0h0.1l0.1-0.7h-0.1
							l0,0h0.4L27.2,50.2L27.2,50.2z"/>
					</g>
					<g>
						<path d="M28.2,50.2h0.2l0,0h-0.1l-0.1,0.5c0,0,0,0.1,0,0.1c0,0-0.1,0.1-0.1,0.1c0,0-0.1,0-0.2,0c-0.1,0-0.2,0-0.2-0.1
							c-0.1,0-0.1-0.1-0.1-0.1c0,0,0-0.1,0-0.1l0.1-0.4h-0.1l0,0H28l0,0h-0.1l-0.1,0.4c0,0.1,0,0.1,0,0.1c0,0,0,0.1,0,0.1
							c0,0,0.1,0,0.1,0c0.1,0,0.1,0,0.1,0c0,0,0.1-0.1,0.1-0.1c0,0,0-0.1,0-0.1l0.1-0.4L28.2,50.2L28.2,50.2z"/>
					</g>
					<g>
						<path d="M28.5,50.2h0.8l0,0h-0.1l-0.2,0.2v0.3h0l0.4-0.5h-0.1l0,0h0.2l0,0h-0.1L29,51h0v-0.4L28.6,51h0L28.5,50.2L28.5,50.2
							L28.5,50.2z M28.9,50.2h-0.1l0,0.5l0,0l0.2-0.2V50.2z M29.2,50.2h-0.1v0.1L29.2,50.2z"/>
					</g>
					<g>
						<path d="M30.4,50.2l0,0.2h0c0-0.1,0-0.1,0-0.1c0,0-0.1,0-0.1,0H30l-0.1,0.3h0c0.1,0,0.1,0,0.1,0c0,0,0-0.1,0.1-0.1h0l-0.1,0.3
							h0c0,0,0,0,0,0c0,0,0,0,0-0.1c0,0,0,0,0,0c0,0,0,0-0.1,0h0l-0.1,0.4h0.1c0,0,0.1,0,0.1,0c0,0,0.1,0,0.1-0.1
							c0,0,0.1-0.1,0.1-0.1h0l-0.1,0.3h-0.7l0,0h0.1l0.1-0.7h-0.1l0,0H30.4z"/>
					</g>
					<g>
						<path d="M30.5,50.2L30.5,50.2l0.4,0c0.1,0,0.2,0,0.2,0.1c0,0,0.1,0.1,0.1,0.1c0,0.1,0,0.1-0.1,0.1c0,0-0.1,0.1-0.2,0.1v0
							c0.1,0,0.1,0.1,0.1,0.1c0,0,0,0.1,0,0.1c0,0.1,0,0.1,0,0.1c0,0,0,0,0,0c0,0,0,0,0,0l0,0c0,0-0.1,0-0.1,0c0,0-0.1,0-0.1,0
							c0,0-0.1,0-0.1-0.1c0,0,0-0.1,0-0.1c0-0.1,0-0.1,0-0.1c0,0,0,0-0.1,0h0l-0.1,0.4h0.1l0,0h-0.4l0,0h0.1l0.1-0.7H30.5z
							 M30.8,50.2l-0.1,0.3h0.1c0.1,0,0.1,0,0.1,0c0,0,0,0,0-0.1c0,0,0-0.1,0-0.1c0,0,0,0,0-0.1C31,50.2,30.9,50.2,30.8,50.2
							L30.8,50.2z"/>
					</g>
					<g>
						<path d="M31.8,50.2c0.1,0,0.2,0,0.2,0.1c0.1,0.1,0.1,0.1,0.1,0.2c0,0.1,0,0.2-0.1,0.2c0,0.1-0.1,0.1-0.2,0.2
							c-0.1,0-0.2,0.1-0.3,0.1c-0.1,0-0.2,0-0.2-0.1c-0.1-0.1-0.1-0.1-0.1-0.2c0-0.1,0-0.2,0.1-0.4C31.5,50.2,31.7,50.2,31.8,50.2z
							 M31.6,50.9c0.1,0,0.1,0,0.1-0.1c0,0,0.1-0.1,0.1-0.3c0-0.1,0-0.2,0-0.3c0,0,0-0.1,0-0.1c0,0-0.1,0-0.1,0
							c-0.1,0-0.1,0-0.2,0.1c0,0.1-0.1,0.2-0.1,0.3c0,0.1,0,0.2,0,0.2C31.5,50.9,31.5,50.9,31.6,50.9z"/>
					</g>
					<g>
						<path d="M32.6,50.2h0.4l0,0h-0.1l-0.1,0.7h0.1l0,0h-0.3l0,0h0.1L32.6,50.2L32.6,50.2L32.6,50.2z"/>
					</g>
					<g>
						<path d="M33.4,50.2l0.2,0.5h0l0.1-0.5h-0.1l0,0h0.2l0,0h-0.1l-0.2,0.7h0l-0.4-0.7h0L33,50.9h0.1l0,0h-0.2l0,0H33l0.1-0.7H33
							l0,0H33.4z"/>
					</g>
					<g>
						<path d="M34,50.2L34,50.2L34,50.2l0.3,0c0.1,0,0.1,0,0.1,0c0,0,0.1,0,0.1,0c0,0,0.1,0.1,0.1,0.1c0,0,0,0.1,0,0.2
							c0,0.1,0,0.1-0.1,0.2c0,0.1-0.1,0.1-0.1,0.2c0,0-0.1,0.1-0.1,0.1c0,0-0.1,0-0.1,0h-0.4l0,0h0.1L34,50.2z M34.2,50.2l-0.1,0.7
							h0.1c0.1,0,0.1,0,0.1,0c0,0,0.1,0,0.1-0.1c0,0,0-0.1,0.1-0.2c0-0.1,0-0.2,0-0.3C34.5,50.3,34.4,50.2,34.2,50.2L34.2,50.2z"/>
					</g>
					<g>
						<path d="M35.5,50.2l-0.1,0.7h0.1c0,0,0.1,0,0.1,0c0,0,0.1,0,0.1-0.1c0,0,0.1-0.1,0.1-0.1h0l-0.1,0.3H35l0,0h0.1l0.1-0.7h-0.1
							l0,0h0.4L35.5,50.2L35.5,50.2z"/>
					</g>
					<g>
						<path d="M35.9,50.2h0.7l-0.1,0.3h0c0,0,0,0,0-0.1c0-0.1-0.1-0.2-0.2-0.2h0l-0.1,0.7h0.1l0,0h-0.4l0,0H36l0.1-0.7
							C36.1,50.2,36,50.2,35.9,50.2c0.1,0.1,0,0.2,0,0.3h0L35.9,50.2z"/>
					</g>
					<g>
						<path d="M36.8,50.2L36.8,50.2L36.8,50.2l0.3,0c0.1,0,0.1,0,0.1,0c0,0,0.1,0,0.1,0c0,0,0.1,0.1,0.1,0.1c0,0,0,0.1,0,0.2
							c0,0.1,0,0.1,0,0.2c0,0.1-0.1,0.1-0.1,0.2c0,0-0.1,0.1-0.1,0.1c0,0-0.1,0-0.1,0h-0.4l0,0h0.1L36.8,50.2z M37,50.2l-0.1,0.7
							h0.1c0.1,0,0.1,0,0.1,0c0,0,0.1,0,0.1-0.1c0,0,0-0.1,0.1-0.2c0-0.1,0-0.2,0-0.3C37.3,50.3,37.2,50.2,37,50.2L37,50.2z"/>
					</g>
					<g>
						<path d="M37.5,50.9C37.5,50.8,37.5,50.8,37.5,50.9C37.5,50.8,37.5,50.8,37.5,50.9c0.1-0.1,0.1-0.1,0.2-0.1c0,0,0,0,0,0.1
							c0,0,0,0,0,0.1C37.6,50.9,37.6,51,37.5,50.9C37.5,51,37.5,50.9,37.5,50.9C37.5,50.9,37.5,50.9,37.5,50.9z"/>
					</g>
				</g>
			</g>
		</g>
	</g>
</g>
</svg>
